<?xml version="1.0" encoding="UTF-8"?>
<svg xmlns="http://www.w3.org/2000/svg" width="1600" height="1600" viewBox="0 0 1600 1600">

<defs>
  <linearGradient id="bg" x1="0%" y1="0%" x2="100%" y2="100%">
    <stop offset="0%" stop-color="#F4E8CB"/>
    <stop offset="55%" stop-color="#E3C089"/>
    <stop offset="100%" stop-color="#C98C57"/>
  </linearGradient>
  <radialGradient id="infield" cx="50%" cy="50%" r="60%">
    <stop offset="0%" stop-color="#DCEAD1"/>
    <stop offset="100%" stop-color="#9CB889"/>
  </radialGradient>
  <linearGradient id="asphalt" x1="0%" y1="0%" x2="0%" y2="100%">
    <stop offset="0%" stop-color="#5A534D"/>
    <stop offset="100%" stop-color="#3E3833"/>
  </linearGradient>
  <filter id="drop" x="-20%" y="-20%" width="140%" height="140%">
    <feDropShadow dx="0" dy="6" stdDeviation="6" flood-color="#5C3821" flood-opacity="0.22"/>
  </filter>
</defs>
<rect x="0" y="0" width="1600" height="1600" fill="url(#bg)"/>

<text x="800.00" y="104.00" text-anchor="middle" font-family="Trebuchet MS, Verdana, sans-serif" font-size="40" font-weight="800" fill="#18324D">RACER PROTOTYPE</text>
<text x="800.00" y="138.00" text-anchor="middle" font-family="Trebuchet MS, Verdana, sans-serif" font-size="16" font-weight="400" fill="#3C5A78">Draft actions. Race hard. First to 5 laps wins.</text>
<g filter="url(#drop)">
<path d="M 340.00 210.00 H 1260.00 A 220.00 220.00 0 0 1 1480.00 430.00 V 1170.00 A 220.00 220.00 0 0 1 1260.00 1390.00 H 340.00 A 220.00 220.00 0 0 1 120.00 1170.00 V 430.00 A 220.00 220.00 0 0 1 340.00 210.00 Z" fill="none" stroke="#EED8B0" stroke-width="176.00" stroke-linejoin="round"/>
<path d="M 340.00 210.00 H 1260.00 A 220.00 220.00 0 0 1 1480.00 430.00 V 1170.00 A 220.00 220.00 0 0 1 1260.00 1390.00 H 340.00 A 220.00 220.00 0 0 1 120.00 1170.00 V 430.00 A 220.00 220.00 0 0 1 340.00 210.00 Z" fill="none" stroke="url(#asphalt)" stroke-width="128.00" stroke-linejoin="round"/>
<path d="M 340.00 210.00 H 1260.00 A 220.00 220.00 0 0 1 1480.00 430.00 V 1170.00 A 220.00 220.00 0 0 1 1260.00 1390.00 H 340.00 A 220.00 220.00 0 0 1 120.00 1170.00 V 430.00 A 220.00 220.00 0 0 1 340.00 210.00 Z" fill="none" stroke="#F8EED0" stroke-width="3" stroke-dasharray="22 14" opacity="0.85" stroke-linejoin="round"/>
</g>
<path d="M 340.00 280.00 H 1260.00 A 150.00 150.00 0 0 1 1410.00 430.00 V 1170.00 A 150.00 150.00 0 0 1 1260.00 1320.00 H 340.00 A 150.00 150.00 0 0 1 190.00 1170.00 V 430.00 A 150.00 150.00 0 0 1 340.00 280.00 Z" fill="url(#infield)" stroke="#6F8C5E" stroke-width="3" opacity="0.95"/>
<g transform="translate(800.00 1390.00) rotate(180.00)"><rect x="-37.00" y="-52.00" width="74.00" height="104.00" rx="10" fill="#F7F1E3" stroke="#776E62" stroke-width="2"/><text x="0" y="-58.00" text-anchor="middle" font-family="Trebuchet MS, Verdana, sans-serif" font-size="13" font-weight="700" fill="#2B2320">0</text><rect x="-34.00" y="-49.00" width="68.00" height="98.00" rx="10" fill="#15324D"/><text x="0" y="10" text-anchor="middle" font-family="Trebuchet MS, Verdana, sans-serif" font-size="28" font-weight="800" fill="#FFF6E2">GO</text></g>
<g transform="translate(721.63 1390.00) rotate(180.00)"><rect x="-37.00" y="-52.00" width="74.00" height="104.00" rx="10" fill="#F6C64B" stroke="#8A5800" stroke-width="2"/><text x="0" y="-58.00" text-anchor="middle" font-family="Trebuchet MS, Verdana, sans-serif" font-size="13" font-weight="700" fill="#2B2320">1</text><circle cx="0" cy="0" r="22" fill="#FFF1B6" stroke="#8A5800" stroke-width="3"/><text x="0" y="9" text-anchor="middle" font-family="Trebuchet MS, Verdana, sans-serif" font-size="24" font-weight="800" fill="#8A5800">1</text></g>
<g transform="translate(643.26 1390.00) rotate(180.00)"><rect x="-37.00" y="-52.00" width="74.00" height="104.00" rx="10" fill="#F7F1E3" stroke="#776E62" stroke-width="2"/><text x="0" y="-58.00" text-anchor="middle" font-family="Trebuchet MS, Verdana, sans-serif" font-size="13" font-weight="700" fill="#2B2320">2</text></g>
<g transform="translate(564.88 1390.00) rotate(180.00)"><rect x="-37.00" y="-52.00" width="74.00" height="104.00" rx="10" fill="#F8A513" stroke="#7A4B00" stroke-width="2"/><text x="0" y="-58.00" text-anchor="middle" font-family="Trebuchet MS, Verdana, sans-serif" font-size="13" font-weight="700" fill="#2B2320">3</text><polygon points="0,-24 22,18 -22,18" fill="#FFE0A1" stroke="#7A4B00" stroke-width="3"/><text x="0" y="12" text-anchor="middle" font-family="Trebuchet MS, Verdana, sans-serif" font-size="20" font-weight="800" fill="#7A4B00">Y</text></g>
<g transform="translate(486.51 1390.00) rotate(180.00)"><rect x="-37.00" y="-52.00" width="74.00" height="104.00" rx="10" fill="#F6C64B" stroke="#8A5800" stroke-width="2"/><text x="0" y="-58.00" text-anchor="middle" font-family="Trebuchet MS, Verdana, sans-serif" font-size="13" font-weight="700" fill="#2B2320">4</text><circle cx="0" cy="0" r="22" fill="#FFF1B6" stroke="#8A5800" stroke-width="3"/><text x="0" y="9" text-anchor="middle" font-family="Trebuchet MS, Verdana, sans-serif" font-size="24" font-weight="800" fill="#8A5800">2</text></g>
<g transform="translate(408.14 1390.00) rotate(180.00)"><rect x="-37.00" y="-52.00" width="74.00" height="104.00" rx="10" fill="#4BC8D4" stroke="#0E5968" stroke-width="2"/><text x="0" y="-58.00" text-anchor="middle" font-family="Trebuchet MS, Verdana, sans-serif" font-size="13" font-weight="700" fill="#2B2320">5</text><rect x="-22" y="-22" width="44" height="44" rx="8" fill="#DCF9FF" stroke="#0E5968" stroke-width="3"/><text x="0" y="12" text-anchor="middle" font-family="Trebuchet MS, Verdana, sans-serif" font-size="30" font-weight="800" fill="#0E5968">?</text></g>
<g transform="translate(329.77 1389.76) rotate(182.66)"><rect x="-37.00" y="-52.00" width="74.00" height="104.00" rx="10" fill="#F7F1E3" stroke="#776E62" stroke-width="2"/><text x="0" y="-58.00" text-anchor="middle" font-family="Trebuchet MS, Verdana, sans-serif" font-size="13" font-weight="700" fill="#2B2320">6</text></g>
<g transform="translate(253.77 1372.40) rotate(203.08)"><rect x="-37.00" y="-52.00" width="74.00" height="104.00" rx="10" fill="#F6C64B" stroke="#8A5800" stroke-width="2"/><text x="0" y="-58.00" text-anchor="middle" font-family="Trebuchet MS, Verdana, sans-serif" font-size="13" font-weight="700" fill="#2B2320">7</text><circle cx="0" cy="0" r="22" fill="#FFF1B6" stroke="#8A5800" stroke-width="3"/><text x="0" y="9" text-anchor="middle" font-family="Trebuchet MS, Verdana, sans-serif" font-size="24" font-weight="800" fill="#8A5800">1</text></g>
<g transform="translate(188.60 1329.62) rotate(223.49)"><rect x="-37.00" y="-52.00" width="74.00" height="104.00" rx="10" fill="#EF6A41" stroke="#7C2816" stroke-width="2"/><text x="0" y="-58.00" text-anchor="middle" font-family="Trebuchet MS, Verdana, sans-serif" font-size="13" font-weight="700" fill="#2B2320">8</text><polygon points="0,-24 22,18 -22,18" fill="#FFD3C4" stroke="#7C2816" stroke-width="3"/><text x="0" y="12" text-anchor="middle" font-family="Trebuchet MS, Verdana, sans-serif" font-size="20" font-weight="800" fill="#7C2816">O</text></g>
<g transform="translate(142.44 1266.80) rotate(243.90)"><rect x="-37.00" y="-52.00" width="74.00" height="104.00" rx="10" fill="#F7F1E3" stroke="#776E62" stroke-width="2"/><text x="0" y="-58.00" text-anchor="middle" font-family="Trebuchet MS, Verdana, sans-serif" font-size="13" font-weight="700" fill="#2B2320">9</text></g>
<g transform="translate(121.08 1191.82) rotate(264.31)"><rect x="-37.00" y="-52.00" width="74.00" height="104.00" rx="10" fill="#F6C64B" stroke="#8A5800" stroke-width="2"/><text x="0" y="-58.00" text-anchor="middle" font-family="Trebuchet MS, Verdana, sans-serif" font-size="13" font-weight="700" fill="#2B2320">10</text><circle cx="0" cy="0" r="22" fill="#FFF1B6" stroke="#8A5800" stroke-width="3"/><text x="0" y="9" text-anchor="middle" font-family="Trebuchet MS, Verdana, sans-serif" font-size="24" font-weight="800" fill="#8A5800">1</text></g>
<g transform="translate(120.00 1113.49) rotate(270.00)"><rect x="-37.00" y="-52.00" width="74.00" height="104.00" rx="10" fill="#F7F1E3" stroke="#776E62" stroke-width="2"/><text x="0" y="-58.00" text-anchor="middle" font-family="Trebuchet MS, Verdana, sans-serif" font-size="13" font-weight="700" fill="#2B2320">11</text></g>
<g transform="translate(120.00 1035.12) rotate(270.00)"><rect x="-37.00" y="-52.00" width="74.00" height="104.00" rx="10" fill="#4BC8D4" stroke="#0E5968" stroke-width="2"/><text x="0" y="-58.00" text-anchor="middle" font-family="Trebuchet MS, Verdana, sans-serif" font-size="13" font-weight="700" fill="#2B2320">12</text><rect x="-22" y="-22" width="44" height="44" rx="8" fill="#DCF9FF" stroke="#0E5968" stroke-width="3"/><text x="0" y="12" text-anchor="middle" font-family="Trebuchet MS, Verdana, sans-serif" font-size="30" font-weight="800" fill="#0E5968">?</text></g>
<g transform="translate(120.00 956.74) rotate(270.00)"><rect x="-37.00" y="-52.00" width="74.00" height="104.00" rx="10" fill="#F6C64B" stroke="#8A5800" stroke-width="2"/><text x="0" y="-58.00" text-anchor="middle" font-family="Trebuchet MS, Verdana, sans-serif" font-size="13" font-weight="700" fill="#2B2320">13</text><circle cx="0" cy="0" r="22" fill="#FFF1B6" stroke="#8A5800" stroke-width="3"/><text x="0" y="9" text-anchor="middle" font-family="Trebuchet MS, Verdana, sans-serif" font-size="24" font-weight="800" fill="#8A5800">2</text></g>
<g transform="translate(120.00 878.37) rotate(270.00)"><rect x="-37.00" y="-52.00" width="74.00" height="104.00" rx="10" fill="#F7F1E3" stroke="#776E62" stroke-width="2"/><text x="0" y="-58.00" text-anchor="middle" font-family="Trebuchet MS, Verdana, sans-serif" font-size="13" font-weight="700" fill="#2B2320">14</text></g>
<g transform="translate(120.00 800.00) rotate(270.00)"><rect x="-37.00" y="-52.00" width="74.00" height="104.00" rx="10" fill="#F8A513" stroke="#7A4B00" stroke-width="2"/><text x="0" y="-58.00" text-anchor="middle" font-family="Trebuchet MS, Verdana, sans-serif" font-size="13" font-weight="700" fill="#2B2320">15</text><polygon points="0,-24 22,18 -22,18" fill="#FFE0A1" stroke="#7A4B00" stroke-width="3"/><text x="0" y="12" text-anchor="middle" font-family="Trebuchet MS, Verdana, sans-serif" font-size="20" font-weight="800" fill="#7A4B00">Y</text></g>
<g transform="translate(120.00 721.63) rotate(270.00)"><rect x="-37.00" y="-52.00" width="74.00" height="104.00" rx="10" fill="#F6C64B" stroke="#8A5800" stroke-width="2"/><text x="0" y="-58.00" text-anchor="middle" font-family="Trebuchet MS, Verdana, sans-serif" font-size="13" font-weight="700" fill="#2B2320">16</text><circle cx="0" cy="0" r="22" fill="#FFF1B6" stroke="#8A5800" stroke-width="3"/><text x="0" y="9" text-anchor="middle" font-family="Trebuchet MS, Verdana, sans-serif" font-size="24" font-weight="800" fill="#8A5800">1</text></g>
<g transform="translate(120.00 643.26) rotate(270.00)"><rect x="-37.00" y="-52.00" width="74.00" height="104.00" rx="10" fill="#F7F1E3" stroke="#776E62" stroke-width="2"/><text x="0" y="-58.00" text-anchor="middle" font-family="Trebuchet MS, Verdana, sans-serif" font-size="13" font-weight="700" fill="#2B2320">17</text></g>
<g transform="translate(120.00 564.88) rotate(270.00)"><rect x="-37.00" y="-52.00" width="74.00" height="104.00" rx="10" fill="#F6C64B" stroke="#8A5800" stroke-width="2"/><text x="0" y="-58.00" text-anchor="middle" font-family="Trebuchet MS, Verdana, sans-serif" font-size="13" font-weight="700" fill="#2B2320">18</text><circle cx="0" cy="0" r="22" fill="#FFF1B6" stroke="#8A5800" stroke-width="3"/><text x="0" y="9" text-anchor="middle" font-family="Trebuchet MS, Verdana, sans-serif" font-size="24" font-weight="800" fill="#8A5800">1</text></g>
<g transform="translate(120.00 486.51) rotate(270.00)"><rect x="-37.00" y="-52.00" width="74.00" height="104.00" rx="10" fill="#4BC8D4" stroke="#0E5968" stroke-width="2"/><text x="0" y="-58.00" text-anchor="middle" font-family="Trebuchet MS, Verdana, sans-serif" font-size="13" font-weight="700" fill="#2B2320">19</text><rect x="-22" y="-22" width="44" height="44" rx="8" fill="#DCF9FF" stroke="#0E5968" stroke-width="3"/><text x="0" y="12" text-anchor="middle" font-family="Trebuchet MS, Verdana, sans-serif" font-size="30" font-weight="800" fill="#0E5968">?</text></g>
<g transform="translate(121.08 408.18) rotate(275.69)"><rect x="-37.00" y="-52.00" width="74.00" height="104.00" rx="10" fill="#F7F1E3" stroke="#776E62" stroke-width="2"/><text x="0" y="-58.00" text-anchor="middle" font-family="Trebuchet MS, Verdana, sans-serif" font-size="13" font-weight="700" fill="#2B2320">20</text></g>
<g transform="translate(142.44 333.20) rotate(296.10)"><rect x="-37.00" y="-52.00" width="74.00" height="104.00" rx="10" fill="#DE4764" stroke="#701226" stroke-width="2"/><text x="0" y="-58.00" text-anchor="middle" font-family="Trebuchet MS, Verdana, sans-serif" font-size="13" font-weight="700" fill="#2B2320">21</text><polygon points="0,-24 22,18 -22,18" fill="#FFC5D1" stroke="#701226" stroke-width="3"/><text x="0" y="12" text-anchor="middle" font-family="Trebuchet MS, Verdana, sans-serif" font-size="20" font-weight="800" fill="#701226">R</text></g>
<g transform="translate(188.60 270.38) rotate(316.51)"><rect x="-37.00" y="-52.00" width="74.00" height="104.00" rx="10" fill="#F6C64B" stroke="#8A5800" stroke-width="2"/><text x="0" y="-58.00" text-anchor="middle" font-family="Trebuchet MS, Verdana, sans-serif" font-size="13" font-weight="700" fill="#2B2320">22</text><circle cx="0" cy="0" r="22" fill="#FFF1B6" stroke="#8A5800" stroke-width="3"/><text x="0" y="9" text-anchor="middle" font-family="Trebuchet MS, Verdana, sans-serif" font-size="24" font-weight="800" fill="#8A5800">2</text></g>
<g transform="translate(253.77 227.60) rotate(336.92)"><rect x="-37.00" y="-52.00" width="74.00" height="104.00" rx="10" fill="#F7F1E3" stroke="#776E62" stroke-width="2"/><text x="0" y="-58.00" text-anchor="middle" font-family="Trebuchet MS, Verdana, sans-serif" font-size="13" font-weight="700" fill="#2B2320">23</text></g>
<g transform="translate(329.77 210.24) rotate(357.34)"><rect x="-37.00" y="-52.00" width="74.00" height="104.00" rx="10" fill="#F6C64B" stroke="#8A5800" stroke-width="2"/><text x="0" y="-58.00" text-anchor="middle" font-family="Trebuchet MS, Verdana, sans-serif" font-size="13" font-weight="700" fill="#2B2320">24</text><circle cx="0" cy="0" r="22" fill="#FFF1B6" stroke="#8A5800" stroke-width="3"/><text x="0" y="9" text-anchor="middle" font-family="Trebuchet MS, Verdana, sans-serif" font-size="24" font-weight="800" fill="#8A5800">1</text></g>
<g transform="translate(408.14 210.00) rotate(0.00)"><rect x="-37.00" y="-52.00" width="74.00" height="104.00" rx="10" fill="#F7F1E3" stroke="#776E62" stroke-width="2"/><text x="0" y="-58.00" text-anchor="middle" font-family="Trebuchet MS, Verdana, sans-serif" font-size="13" font-weight="700" fill="#2B2320">25</text></g>
<g transform="translate(486.51 210.00) rotate(0.00)"><rect x="-37.00" y="-52.00" width="74.00" height="104.00" rx="10" fill="#4BC8D4" stroke="#0E5968" stroke-width="2"/><text x="0" y="-58.00" text-anchor="middle" font-family="Trebuchet MS, Verdana, sans-serif" font-size="13" font-weight="700" fill="#2B2320">26</text><rect x="-22" y="-22" width="44" height="44" rx="8" fill="#DCF9FF" stroke="#0E5968" stroke-width="3"/><text x="0" y="12" text-anchor="middle" font-family="Trebuchet MS, Verdana, sans-serif" font-size="30" font-weight="800" fill="#0E5968">?</text></g>
<g transform="translate(564.88 210.00) rotate(0.00)"><rect x="-37.00" y="-52.00" width="74.00" height="104.00" rx="10" fill="#F6C64B" stroke="#8A5800" stroke-width="2"/><text x="0" y="-58.00" text-anchor="middle" font-family="Trebuchet MS, Verdana, sans-serif" font-size="13" font-weight="700" fill="#2B2320">27</text><circle cx="0" cy="0" r="22" fill="#FFF1B6" stroke="#8A5800" stroke-width="3"/><text x="0" y="9" text-anchor="middle" font-family="Trebuchet MS, Verdana, sans-serif" font-size="24" font-weight="800" fill="#8A5800">1</text></g>
<g transform="translate(643.26 210.00) rotate(0.00)"><rect x="-37.00" y="-52.00" width="74.00" height="104.00" rx="10" fill="#EF6A41" stroke="#7C2816" stroke-width="2"/><text x="0" y="-58.00" text-anchor="middle" font-family="Trebuchet MS, Verdana, sans-serif" font-size="13" font-weight="700" fill="#2B2320">28</text><polygon points="0,-24 22,18 -22,18" fill="#FFD3C4" stroke="#7C2816" stroke-width="3"/><text x="0" y="12" text-anchor="middle" font-family="Trebuchet MS, Verdana, sans-serif" font-size="20" font-weight="800" fill="#7C2816">O</text></g>
<g transform="translate(721.63 210.00) rotate(0.00)"><rect x="-37.00" y="-52.00" width="74.00" height="104.00" rx="10" fill="#F7F1E3" stroke="#776E62" stroke-width="2"/><text x="0" y="-58.00" text-anchor="middle" font-family="Trebuchet MS, Verdana, sans-serif" font-size="13" font-weight="700" fill="#2B2320">29</text></g>
<g transform="translate(800.00 210.00) rotate(0.00)"><rect x="-37.00" y="-52.00" width="74.00" height="104.00" rx="10" fill="#F6C64B" stroke="#8A5800" stroke-width="2"/><text x="0" y="-58.00" text-anchor="middle" font-family="Trebuchet MS, Verdana, sans-serif" font-size="13" font-weight="700" fill="#2B2320">30</text><circle cx="0" cy="0" r="22" fill="#FFF1B6" stroke="#8A5800" stroke-width="3"/><text x="0" y="9" text-anchor="middle" font-family="Trebuchet MS, Verdana, sans-serif" font-size="24" font-weight="800" fill="#8A5800">2</text></g>
<g transform="translate(878.37 210.00) rotate(0.00)"><rect x="-37.00" y="-52.00" width="74.00" height="104.00" rx="10" fill="#F7F1E3" stroke="#776E62" stroke-width="2"/><text x="0" y="-58.00" text-anchor="middle" font-family="Trebuchet MS, Verdana, sans-serif" font-size="13" font-weight="700" fill="#2B2320">31</text></g>
<g transform="translate(956.74 210.00) rotate(0.00)"><rect x="-37.00" y="-52.00" width="74.00" height="104.00" rx="10" fill="#F6C64B" stroke="#8A5800" stroke-width="2"/><text x="0" y="-58.00" text-anchor="middle" font-family="Trebuchet MS, Verdana, sans-serif" font-size="13" font-weight="700" fill="#2B2320">32</text><circle cx="0" cy="0" r="22" fill="#FFF1B6" stroke="#8A5800" stroke-width="3"/><text x="0" y="9" text-anchor="middle" font-family="Trebuchet MS, Verdana, sans-serif" font-size="24" font-weight="800" fill="#8A5800">1</text></g>
<g transform="translate(1035.12 210.00) rotate(0.00)"><rect x="-37.00" y="-52.00" width="74.00" height="104.00" rx="10" fill="#4BC8D4" stroke="#0E5968" stroke-width="2"/><text x="0" y="-58.00" text-anchor="middle" font-family="Trebuchet MS, Verdana, sans-serif" font-size="13" font-weight="700" fill="#2B2320">33</text><rect x="-22" y="-22" width="44" height="44" rx="8" fill="#DCF9FF" stroke="#0E5968" stroke-width="3"/><text x="0" y="12" text-anchor="middle" font-family="Trebuchet MS, Verdana, sans-serif" font-size="30" font-weight="800" fill="#0E5968">?</text></g>
<g transform="translate(1113.49 210.00) rotate(0.00)"><rect x="-37.00" y="-52.00" width="74.00" height="104.00" rx="10" fill="#F7F1E3" stroke="#776E62" stroke-width="2"/><text x="0" y="-58.00" text-anchor="middle" font-family="Trebuchet MS, Verdana, sans-serif" font-size="13" font-weight="700" fill="#2B2320">34</text></g>
<g transform="translate(1191.86 210.00) rotate(0.00)"><rect x="-37.00" y="-52.00" width="74.00" height="104.00" rx="10" fill="#F8A513" stroke="#7A4B00" stroke-width="2"/><text x="0" y="-58.00" text-anchor="middle" font-family="Trebuchet MS, Verdana, sans-serif" font-size="13" font-weight="700" fill="#2B2320">35</text><polygon points="0,-24 22,18 -22,18" fill="#FFE0A1" stroke="#7A4B00" stroke-width="3"/><text x="0" y="12" text-anchor="middle" font-family="Trebuchet MS, Verdana, sans-serif" font-size="20" font-weight="800" fill="#7A4B00">Y</text></g>
<g transform="translate(1270.23 210.24) rotate(362.66)"><rect x="-37.00" y="-52.00" width="74.00" height="104.00" rx="10" fill="#F6C64B" stroke="#8A5800" stroke-width="2"/><text x="0" y="-58.00" text-anchor="middle" font-family="Trebuchet MS, Verdana, sans-serif" font-size="13" font-weight="700" fill="#2B2320">36</text><circle cx="0" cy="0" r="22" fill="#FFF1B6" stroke="#8A5800" stroke-width="3"/><text x="0" y="9" text-anchor="middle" font-family="Trebuchet MS, Verdana, sans-serif" font-size="24" font-weight="800" fill="#8A5800">1</text></g>
<g transform="translate(1346.23 227.60) rotate(383.08)"><rect x="-37.00" y="-52.00" width="74.00" height="104.00" rx="10" fill="#F7F1E3" stroke="#776E62" stroke-width="2"/><text x="0" y="-58.00" text-anchor="middle" font-family="Trebuchet MS, Verdana, sans-serif" font-size="13" font-weight="700" fill="#2B2320">37</text></g>
<g transform="translate(1411.40 270.38) rotate(403.49)"><rect x="-37.00" y="-52.00" width="74.00" height="104.00" rx="10" fill="#F6C64B" stroke="#8A5800" stroke-width="2"/><text x="0" y="-58.00" text-anchor="middle" font-family="Trebuchet MS, Verdana, sans-serif" font-size="13" font-weight="700" fill="#2B2320">38</text><circle cx="0" cy="0" r="22" fill="#FFF1B6" stroke="#8A5800" stroke-width="3"/><text x="0" y="9" text-anchor="middle" font-family="Trebuchet MS, Verdana, sans-serif" font-size="24" font-weight="800" fill="#8A5800">2</text></g>
<g transform="translate(1457.56 333.20) rotate(423.90)"><rect x="-37.00" y="-52.00" width="74.00" height="104.00" rx="10" fill="#F7F1E3" stroke="#776E62" stroke-width="2"/><text x="0" y="-58.00" text-anchor="middle" font-family="Trebuchet MS, Verdana, sans-serif" font-size="13" font-weight="700" fill="#2B2320">39</text></g>
<g transform="translate(1478.92 408.18) rotate(444.31)"><rect x="-37.00" y="-52.00" width="74.00" height="104.00" rx="10" fill="#4BC8D4" stroke="#0E5968" stroke-width="2"/><text x="0" y="-58.00" text-anchor="middle" font-family="Trebuchet MS, Verdana, sans-serif" font-size="13" font-weight="700" fill="#2B2320">40</text><rect x="-22" y="-22" width="44" height="44" rx="8" fill="#DCF9FF" stroke="#0E5968" stroke-width="3"/><text x="0" y="12" text-anchor="middle" font-family="Trebuchet MS, Verdana, sans-serif" font-size="30" font-weight="800" fill="#0E5968">?</text></g>
<g transform="translate(1480.00 486.51) rotate(90.00)"><rect x="-37.00" y="-52.00" width="74.00" height="104.00" rx="10" fill="#F6C64B" stroke="#8A5800" stroke-width="2"/><text x="0" y="-58.00" text-anchor="middle" font-family="Trebuchet MS, Verdana, sans-serif" font-size="13" font-weight="700" fill="#2B2320">41</text><circle cx="0" cy="0" r="22" fill="#FFF1B6" stroke="#8A5800" stroke-width="3"/><text x="0" y="9" text-anchor="middle" font-family="Trebuchet MS, Verdana, sans-serif" font-size="24" font-weight="800" fill="#8A5800">1</text></g>
<g transform="translate(1480.00 564.88) rotate(90.00)"><rect x="-37.00" y="-52.00" width="74.00" height="104.00" rx="10" fill="#EF6A41" stroke="#7C2816" stroke-width="2"/><text x="0" y="-58.00" text-anchor="middle" font-family="Trebuchet MS, Verdana, sans-serif" font-size="13" font-weight="700" fill="#2B2320">42</text><polygon points="0,-24 22,18 -22,18" fill="#FFD3C4" stroke="#7C2816" stroke-width="3"/><text x="0" y="12" text-anchor="middle" font-family="Trebuchet MS, Verdana, sans-serif" font-size="20" font-weight="800" fill="#7C2816">O</text></g>
<g transform="translate(1480.00 643.26) rotate(90.00)"><rect x="-37.00" y="-52.00" width="74.00" height="104.00" rx="10" fill="#F7F1E3" stroke="#776E62" stroke-width="2"/><text x="0" y="-58.00" text-anchor="middle" font-family="Trebuchet MS, Verdana, sans-serif" font-size="13" font-weight="700" fill="#2B2320">43</text></g>
<g transform="translate(1480.00 721.63) rotate(90.00)"><rect x="-37.00" y="-52.00" width="74.00" height="104.00" rx="10" fill="#F6C64B" stroke="#8A5800" stroke-width="2"/><text x="0" y="-58.00" text-anchor="middle" font-family="Trebuchet MS, Verdana, sans-serif" font-size="13" font-weight="700" fill="#2B2320">44</text><circle cx="0" cy="0" r="22" fill="#FFF1B6" stroke="#8A5800" stroke-width="3"/><text x="0" y="9" text-anchor="middle" font-family="Trebuchet MS, Verdana, sans-serif" font-size="24" font-weight="800" fill="#8A5800">1</text></g>
<g transform="translate(1480.00 800.00) rotate(90.00)"><rect x="-37.00" y="-52.00" width="74.00" height="104.00" rx="10" fill="#F7F1E3" stroke="#776E62" stroke-width="2"/><text x="0" y="-58.00" text-anchor="middle" font-family="Trebuchet MS, Verdana, sans-serif" font-size="13" font-weight="700" fill="#2B2320">45</text></g>
<g transform="translate(1480.00 878.37) rotate(90.00)"><rect x="-37.00" y="-52.00" width="74.00" height="104.00" rx="10" fill="#F6C64B" stroke="#8A5800" stroke-width="2"/><text x="0" y="-58.00" text-anchor="middle" font-family="Trebuchet MS, Verdana, sans-serif" font-size="13" font-weight="700" fill="#2B2320">46</text><circle cx="0" cy="0" r="22" fill="#FFF1B6" stroke="#8A5800" stroke-width="3"/><text x="0" y="9" text-anchor="middle" font-family="Trebuchet MS, Verdana, sans-serif" font-size="24" font-weight="800" fill="#8A5800">2</text></g>
<g transform="translate(1480.00 956.74) rotate(90.00)"><rect x="-37.00" y="-52.00" width="74.00" height="104.00" rx="10" fill="#4BC8D4" stroke="#0E5968" stroke-width="2"/><text x="0" y="-58.00" text-anchor="middle" font-family="Trebuchet MS, Verdana, sans-serif" font-size="13" font-weight="700" fill="#2B2320">47</text><rect x="-22" y="-22" width="44" height="44" rx="8" fill="#DCF9FF" stroke="#0E5968" stroke-width="3"/><text x="0" y="12" text-anchor="middle" font-family="Trebuchet MS, Verdana, sans-serif" font-size="30" font-weight="800" fill="#0E5968">?</text></g>
<g transform="translate(1480.00 1035.12) rotate(90.00)"><rect x="-37.00" y="-52.00" width="74.00" height="104.00" rx="10" fill="#F7F1E3" stroke="#776E62" stroke-width="2"/><text x="0" y="-58.00" text-anchor="middle" font-family="Trebuchet MS, Verdana, sans-serif" font-size="13" font-weight="700" fill="#2B2320">48</text></g>
<g transform="translate(1480.00 1113.49) rotate(90.00)"><rect x="-37.00" y="-52.00" width="74.00" height="104.00" rx="10" fill="#DE4764" stroke="#701226" stroke-width="2"/><text x="0" y="-58.00" text-anchor="middle" font-family="Trebuchet MS, Verdana, sans-serif" font-size="13" font-weight="700" fill="#2B2320">49</text><polygon points="0,-24 22,18 -22,18" fill="#FFC5D1" stroke="#701226" stroke-width="3"/><text x="0" y="12" text-anchor="middle" font-family="Trebuchet MS, Verdana, sans-serif" font-size="20" font-weight="800" fill="#701226">R</text></g>
<g transform="translate(1478.92 1191.82) rotate(95.69)"><rect x="-37.00" y="-52.00" width="74.00" height="104.00" rx="10" fill="#F6C64B" stroke="#8A5800" stroke-width="2"/><text x="0" y="-58.00" text-anchor="middle" font-family="Trebuchet MS, Verdana, sans-serif" font-size="13" font-weight="700" fill="#2B2320">50</text><circle cx="0" cy="0" r="22" fill="#FFF1B6" stroke="#8A5800" stroke-width="3"/><text x="0" y="9" text-anchor="middle" font-family="Trebuchet MS, Verdana, sans-serif" font-size="24" font-weight="800" fill="#8A5800">1</text></g>
<g transform="translate(1457.56 1266.80) rotate(116.10)"><rect x="-37.00" y="-52.00" width="74.00" height="104.00" rx="10" fill="#F7F1E3" stroke="#776E62" stroke-width="2"/><text x="0" y="-58.00" text-anchor="middle" font-family="Trebuchet MS, Verdana, sans-serif" font-size="13" font-weight="700" fill="#2B2320">51</text></g>
<g transform="translate(1411.40 1329.62) rotate(136.51)"><rect x="-37.00" y="-52.00" width="74.00" height="104.00" rx="10" fill="#F6C64B" stroke="#8A5800" stroke-width="2"/><text x="0" y="-58.00" text-anchor="middle" font-family="Trebuchet MS, Verdana, sans-serif" font-size="13" font-weight="700" fill="#2B2320">52</text><circle cx="0" cy="0" r="22" fill="#FFF1B6" stroke="#8A5800" stroke-width="3"/><text x="0" y="9" text-anchor="middle" font-family="Trebuchet MS, Verdana, sans-serif" font-size="24" font-weight="800" fill="#8A5800">1</text></g>
<g transform="translate(1346.23 1372.40) rotate(156.92)"><rect x="-37.00" y="-52.00" width="74.00" height="104.00" rx="10" fill="#F7F1E3" stroke="#776E62" stroke-width="2"/><text x="0" y="-58.00" text-anchor="middle" font-family="Trebuchet MS, Verdana, sans-serif" font-size="13" font-weight="700" fill="#2B2320">53</text></g>
<g transform="translate(1270.23 1389.76) rotate(177.34)"><rect x="-37.00" y="-52.00" width="74.00" height="104.00" rx="10" fill="#4BC8D4" stroke="#0E5968" stroke-width="2"/><text x="0" y="-58.00" text-anchor="middle" font-family="Trebuchet MS, Verdana, sans-serif" font-size="13" font-weight="700" fill="#2B2320">54</text><rect x="-22" y="-22" width="44" height="44" rx="8" fill="#DCF9FF" stroke="#0E5968" stroke-width="3"/><text x="0" y="12" text-anchor="middle" font-family="Trebuchet MS, Verdana, sans-serif" font-size="30" font-weight="800" fill="#0E5968">?</text></g>
<g transform="translate(1191.86 1390.00) rotate(180.00)"><rect x="-37.00" y="-52.00" width="74.00" height="104.00" rx="10" fill="#F6C64B" stroke="#8A5800" stroke-width="2"/><text x="0" y="-58.00" text-anchor="middle" font-family="Trebuchet MS, Verdana, sans-serif" font-size="13" font-weight="700" fill="#2B2320">55</text><circle cx="0" cy="0" r="22" fill="#FFF1B6" stroke="#8A5800" stroke-width="3"/><text x="0" y="9" text-anchor="middle" font-family="Trebuchet MS, Verdana, sans-serif" font-size="24" font-weight="800" fill="#8A5800">2</text></g>
<g transform="translate(1113.49 1390.00) rotate(180.00)"><rect x="-37.00" y="-52.00" width="74.00" height="104.00" rx="10" fill="#F8A513" stroke="#7A4B00" stroke-width="2"/><text x="0" y="-58.00" text-anchor="middle" font-family="Trebuchet MS, Verdana, sans-serif" font-size="13" font-weight="700" fill="#2B2320">56</text><polygon points="0,-24 22,18 -22,18" fill="#FFE0A1" stroke="#7A4B00" stroke-width="3"/><text x="0" y="12" text-anchor="middle" font-family="Trebuchet MS, Verdana, sans-serif" font-size="20" font-weight="800" fill="#7A4B00">Y</text></g>
<g transform="translate(1035.12 1390.00) rotate(180.00)"><rect x="-37.00" y="-52.00" width="74.00" height="104.00" rx="10" fill="#F7F1E3" stroke="#776E62" stroke-width="2"/><text x="0" y="-58.00" text-anchor="middle" font-family="Trebuchet MS, Verdana, sans-serif" font-size="13" font-weight="700" fill="#2B2320">57</text></g>
<g transform="translate(956.74 1390.00) rotate(180.00)"><rect x="-37.00" y="-52.00" width="74.00" height="104.00" rx="10" fill="#F6C64B" stroke="#8A5800" stroke-width="2"/><text x="0" y="-58.00" text-anchor="middle" font-family="Trebuchet MS, Verdana, sans-serif" font-size="13" font-weight="700" fill="#2B2320">58</text><circle cx="0" cy="0" r="22" fill="#FFF1B6" stroke="#8A5800" stroke-width="3"/><text x="0" y="9" text-anchor="middle" font-family="Trebuchet MS, Verdana, sans-serif" font-size="24" font-weight="800" fill="#8A5800">1</text></g>
<g transform="translate(878.37 1390.00) rotate(180.00)"><rect x="-37.00" y="-52.00" width="74.00" height="104.00" rx="10" fill="#F7F1E3" stroke="#776E62" stroke-width="2"/><text x="0" y="-58.00" text-anchor="middle" font-family="Trebuchet MS, Verdana, sans-serif" font-size="13" font-weight="700" fill="#2B2320">59</text><rect x="-34.00" y="-49.00" width="13.60" height="98.00" fill="#18181A"/><rect x="-20.40" y="-49.00" width="13.60" height="98.00" fill="#FBF2D9"/><rect x="-6.80" y="-49.00" width="13.60" height="98.00" fill="#18181A"/><rect x="6.80" y="-49.00" width="13.60" height="98.00" fill="#FBF2D9"/><rect x="20.40" y="-49.00" width="13.60" height="98.00" fill="#18181A"/></g>
<g><rect x="630.00" y="389.00" width="340.00" height="62.00" rx="14" fill="#18324D" stroke="#F6C64B" stroke-width="3"/><text x="800.00" y="426.00" text-anchor="middle" font-family="Trebuchet MS, Verdana, sans-serif" font-size="24" font-weight="800" fill="#F6C64B">RACE GOAL: 5 LAPS</text></g>
<g filter="url(#drop)">
<rect x="420.00" y="460.00" width="760.00" height="720.00" rx="18" fill="#FFF7E1" stroke="#18324D" stroke-width="3"/>
<text x="800.00" y="496.00" text-anchor="middle" font-family="Trebuchet MS, Verdana, sans-serif" font-size="24" font-weight="800" fill="#18324D">Action Board</text>
<text x="800.00" y="522.00" text-anchor="middle" font-family="Trebuchet MS, Verdana, sans-serif" font-size="14" font-weight="400" fill="#4C6A86">Resolve rows top to bottom</text>
<rect x="436.00" y="540.00" width="728.00" height="68.00" rx="10" fill="#F4E6C4" stroke="#B58E4E" stroke-width="2"/>
<circle cx="460.00" cy="574.00" r="16" fill="#18324D"/><text x="460.00" y="579.00" text-anchor="middle" font-family="Trebuchet MS, Verdana, sans-serif" font-size="15" font-weight="800" fill="#FFF6E2">1</text>
<text x="488.00" y="564.00" text-anchor="start" font-family="Trebuchet MS, Verdana, sans-serif" font-size="18" font-weight="700" fill="#18324D">First Player</text>
<text x="488.00" y="584.00" text-anchor="start" font-family="Trebuchet MS, Verdana, sans-serif" font-size="13" font-weight="400" fill="#6A7A8A">Claim next draft order</text>
<rect x="1096.00" y="554.00" width="52.00" height="40.00" rx="8" fill="#D6E1EE" stroke="#233E5B" stroke-width="2"/><text x="1122.00" y="579.00" text-anchor="middle" font-family="Trebuchet MS, Verdana, sans-serif" font-size="14" font-weight="800" fill="#233E5B">1ST</text>
<rect x="436.00" y="616.00" width="728.00" height="68.00" rx="10" fill="#F4E6C4" stroke="#B58E4E" stroke-width="2"/>
<circle cx="460.00" cy="650.00" r="16" fill="#18324D"/><text x="460.00" y="655.00" text-anchor="middle" font-family="Trebuchet MS, Verdana, sans-serif" font-size="15" font-weight="800" fill="#FFF6E2">2</text>
<text x="488.00" y="640.00" text-anchor="start" font-family="Trebuchet MS, Verdana, sans-serif" font-size="18" font-weight="700" fill="#18324D">Gain Coins</text>
<text x="488.00" y="660.00" text-anchor="start" font-family="Trebuchet MS, Verdana, sans-serif" font-size="13" font-weight="400" fill="#6A7A8A">Immediate coin gain</text>
<rect x="856.00" y="630.00" width="52.00" height="40.00" rx="8" fill="#F7DB73" stroke="#8C6700" stroke-width="2"/><text x="882.00" y="655.00" text-anchor="middle" font-family="Trebuchet MS, Verdana, sans-serif" font-size="18" font-weight="800" fill="#8C6700">+5</text>
<rect x="916.00" y="630.00" width="52.00" height="40.00" rx="8" fill="#F7DB73" stroke="#8C6700" stroke-width="2"/><text x="942.00" y="655.00" text-anchor="middle" font-family="Trebuchet MS, Verdana, sans-serif" font-size="18" font-weight="800" fill="#8C6700">+3</text>
<rect x="976.00" y="630.00" width="52.00" height="40.00" rx="8" fill="#F7DB73" stroke="#8C6700" stroke-width="2"/><text x="1002.00" y="655.00" text-anchor="middle" font-family="Trebuchet MS, Verdana, sans-serif" font-size="18" font-weight="800" fill="#8C6700">+2</text>
<rect x="1036.00" y="630.00" width="52.00" height="40.00" rx="8" fill="#F7DB73" stroke="#8C6700" stroke-width="2"/><text x="1062.00" y="655.00" text-anchor="middle" font-family="Trebuchet MS, Verdana, sans-serif" font-size="18" font-weight="800" fill="#8C6700">+1</text>
<rect x="1096.00" y="630.00" width="52.00" height="40.00" rx="8" fill="#F7DB73" stroke="#8C6700" stroke-width="2"/><text x="1122.00" y="655.00" text-anchor="middle" font-family="Trebuchet MS, Verdana, sans-serif" font-size="18" font-weight="800" fill="#8C6700">+1</text>
<rect x="436.00" y="692.00" width="728.00" height="68.00" rx="10" fill="#F4E6C4" stroke="#B58E4E" stroke-width="2"/>
<circle cx="460.00" cy="726.00" r="16" fill="#18324D"/><text x="460.00" y="731.00" text-anchor="middle" font-family="Trebuchet MS, Verdana, sans-serif" font-size="15" font-weight="800" fill="#FFF6E2">3</text>
<text x="488.00" y="716.00" text-anchor="start" font-family="Trebuchet MS, Verdana, sans-serif" font-size="18" font-weight="700" fill="#18324D">Dice Movement A</text>
<text x="488.00" y="736.00" text-anchor="start" font-family="Trebuchet MS, Verdana, sans-serif" font-size="13" font-weight="400" fill="#6A7A8A">Yellow / orange row</text>
<rect x="856.00" y="706.00" width="52.00" height="40.00" rx="8" fill="#F7DB73" stroke="#8C6700" stroke-width="2"/><text x="882.00" y="731.00" text-anchor="middle" font-family="Trebuchet MS, Verdana, sans-serif" font-size="18" font-weight="800" fill="#8C6700">2</text>
<rect x="916.00" y="706.00" width="52.00" height="40.00" rx="8" fill="#F4B08C" stroke="#8A3E21" stroke-width="2"/><text x="942.00" y="731.00" text-anchor="middle" font-family="Trebuchet MS, Verdana, sans-serif" font-size="18" font-weight="800" fill="#8A3E21">2</text>
<rect x="976.00" y="706.00" width="52.00" height="40.00" rx="8" fill="#E88AA0" stroke="#7A1733" stroke-width="2"/><text x="1002.00" y="731.00" text-anchor="middle" font-family="Trebuchet MS, Verdana, sans-serif" font-size="18" font-weight="800" fill="#7A1733">1</text>
<rect x="1036.00" y="706.00" width="52.00" height="40.00" rx="8" fill="#F7DB73" stroke="#8C6700" stroke-width="2"/><text x="1062.00" y="731.00" text-anchor="middle" font-family="Trebuchet MS, Verdana, sans-serif" font-size="18" font-weight="800" fill="#8C6700">1</text>
<rect x="1096.00" y="706.00" width="52.00" height="40.00" rx="8" fill="#F4B08C" stroke="#8A3E21" stroke-width="2"/><text x="1122.00" y="731.00" text-anchor="middle" font-family="Trebuchet MS, Verdana, sans-serif" font-size="18" font-weight="800" fill="#8A3E21">1</text>
<rect x="436.00" y="768.00" width="728.00" height="68.00" rx="10" fill="#F4E6C4" stroke="#B58E4E" stroke-width="2"/>
<circle cx="460.00" cy="802.00" r="16" fill="#18324D"/><text x="460.00" y="807.00" text-anchor="middle" font-family="Trebuchet MS, Verdana, sans-serif" font-size="15" font-weight="800" fill="#FFF6E2">4</text>
<text x="488.00" y="792.00" text-anchor="start" font-family="Trebuchet MS, Verdana, sans-serif" font-size="18" font-weight="700" fill="#18324D">Gain Fuel</text>
<text x="488.00" y="812.00" text-anchor="start" font-family="Trebuchet MS, Verdana, sans-serif" font-size="13" font-weight="400" fill="#6A7A8A">Immediate fuel gain (max 7)</text>
<rect x="856.00" y="782.00" width="52.00" height="40.00" rx="8" fill="#D5EDCA" stroke="#3C5D2A" stroke-width="2"/><text x="882.00" y="807.00" text-anchor="middle" font-family="Trebuchet MS, Verdana, sans-serif" font-size="18" font-weight="800" fill="#3C5D2A">+4</text>
<rect x="916.00" y="782.00" width="52.00" height="40.00" rx="8" fill="#D5EDCA" stroke="#3C5D2A" stroke-width="2"/><text x="942.00" y="807.00" text-anchor="middle" font-family="Trebuchet MS, Verdana, sans-serif" font-size="18" font-weight="800" fill="#3C5D2A">+3</text>
<rect x="976.00" y="782.00" width="52.00" height="40.00" rx="8" fill="#D5EDCA" stroke="#3C5D2A" stroke-width="2"/><text x="1002.00" y="807.00" text-anchor="middle" font-family="Trebuchet MS, Verdana, sans-serif" font-size="18" font-weight="800" fill="#3C5D2A">+2</text>
<rect x="1036.00" y="782.00" width="52.00" height="40.00" rx="8" fill="#D5EDCA" stroke="#3C5D2A" stroke-width="2"/><text x="1062.00" y="807.00" text-anchor="middle" font-family="Trebuchet MS, Verdana, sans-serif" font-size="18" font-weight="800" fill="#3C5D2A">+1</text>
<rect x="1096.00" y="782.00" width="52.00" height="40.00" rx="8" fill="#D5EDCA" stroke="#3C5D2A" stroke-width="2"/><text x="1122.00" y="807.00" text-anchor="middle" font-family="Trebuchet MS, Verdana, sans-serif" font-size="18" font-weight="800" fill="#3C5D2A">+1</text>
<rect x="436.00" y="844.00" width="728.00" height="68.00" rx="10" fill="#F4E6C4" stroke="#B58E4E" stroke-width="2"/>
<circle cx="460.00" cy="878.00" r="16" fill="#18324D"/><text x="460.00" y="883.00" text-anchor="middle" font-family="Trebuchet MS, Verdana, sans-serif" font-size="15" font-weight="800" fill="#FFF6E2">5</text>
<text x="488.00" y="868.00" text-anchor="start" font-family="Trebuchet MS, Verdana, sans-serif" font-size="18" font-weight="700" fill="#18324D">Fixed Movement</text>
<text x="488.00" y="888.00" text-anchor="start" font-family="Trebuchet MS, Verdana, sans-serif" font-size="13" font-weight="400" fill="#6A7A8A">Move the printed amount</text>
<rect x="796.00" y="858.00" width="52.00" height="40.00" rx="8" fill="#F4C2B1" stroke="#87442E" stroke-width="2"/><text x="822.00" y="883.00" text-anchor="middle" font-family="Trebuchet MS, Verdana, sans-serif" font-size="18" font-weight="800" fill="#87442E">+6</text>
<rect x="856.00" y="858.00" width="52.00" height="40.00" rx="8" fill="#F4C2B1" stroke="#87442E" stroke-width="2"/><text x="882.00" y="883.00" text-anchor="middle" font-family="Trebuchet MS, Verdana, sans-serif" font-size="18" font-weight="800" fill="#87442E">+4</text>
<rect x="916.00" y="858.00" width="52.00" height="40.00" rx="8" fill="#F4C2B1" stroke="#87442E" stroke-width="2"/><text x="942.00" y="883.00" text-anchor="middle" font-family="Trebuchet MS, Verdana, sans-serif" font-size="18" font-weight="800" fill="#87442E">+3</text>
<rect x="976.00" y="858.00" width="52.00" height="40.00" rx="8" fill="#F4C2B1" stroke="#87442E" stroke-width="2"/><text x="1002.00" y="883.00" text-anchor="middle" font-family="Trebuchet MS, Verdana, sans-serif" font-size="18" font-weight="800" fill="#87442E">+2</text>
<rect x="1036.00" y="858.00" width="52.00" height="40.00" rx="8" fill="#F4C2B1" stroke="#87442E" stroke-width="2"/><text x="1062.00" y="883.00" text-anchor="middle" font-family="Trebuchet MS, Verdana, sans-serif" font-size="18" font-weight="800" fill="#87442E">+2</text>
<rect x="1096.00" y="858.00" width="52.00" height="40.00" rx="8" fill="#F4C2B1" stroke="#87442E" stroke-width="2"/><text x="1122.00" y="883.00" text-anchor="middle" font-family="Trebuchet MS, Verdana, sans-serif" font-size="18" font-weight="800" fill="#87442E">+1</text>
<rect x="436.00" y="920.00" width="728.00" height="68.00" rx="10" fill="#F4E6C4" stroke="#B58E4E" stroke-width="2"/>
<circle cx="460.00" cy="954.00" r="16" fill="#18324D"/><text x="460.00" y="959.00" text-anchor="middle" font-family="Trebuchet MS, Verdana, sans-serif" font-size="15" font-weight="800" fill="#FFF6E2">6</text>
<text x="488.00" y="944.00" text-anchor="start" font-family="Trebuchet MS, Verdana, sans-serif" font-size="18" font-weight="700" fill="#18324D">Dice Movement B</text>
<text x="488.00" y="964.00" text-anchor="start" font-family="Trebuchet MS, Verdana, sans-serif" font-size="13" font-weight="400" fill="#6A7A8A">Orange / red row</text>
<rect x="856.00" y="934.00" width="52.00" height="40.00" rx="8" fill="#F4B08C" stroke="#8A3E21" stroke-width="2"/><text x="882.00" y="959.00" text-anchor="middle" font-family="Trebuchet MS, Verdana, sans-serif" font-size="18" font-weight="800" fill="#8A3E21">2</text>
<rect x="916.00" y="934.00" width="52.00" height="40.00" rx="8" fill="#E88AA0" stroke="#7A1733" stroke-width="2"/><text x="942.00" y="959.00" text-anchor="middle" font-family="Trebuchet MS, Verdana, sans-serif" font-size="18" font-weight="800" fill="#7A1733">2</text>
<rect x="976.00" y="934.00" width="52.00" height="40.00" rx="8" fill="#E88AA0" stroke="#7A1733" stroke-width="2"/><text x="1002.00" y="959.00" text-anchor="middle" font-family="Trebuchet MS, Verdana, sans-serif" font-size="18" font-weight="800" fill="#7A1733">1</text>
<rect x="1036.00" y="934.00" width="52.00" height="40.00" rx="8" fill="#F4B08C" stroke="#8A3E21" stroke-width="2"/><text x="1062.00" y="959.00" text-anchor="middle" font-family="Trebuchet MS, Verdana, sans-serif" font-size="18" font-weight="800" fill="#8A3E21">1</text>
<rect x="1096.00" y="934.00" width="52.00" height="40.00" rx="8" fill="#F7DB73" stroke="#8C6700" stroke-width="2"/><text x="1122.00" y="959.00" text-anchor="middle" font-family="Trebuchet MS, Verdana, sans-serif" font-size="18" font-weight="800" fill="#8C6700">1</text>
<rect x="436.00" y="996.00" width="728.00" height="68.00" rx="10" fill="#F4E6C4" stroke="#B58E4E" stroke-width="2"/>
<circle cx="460.00" cy="1030.00" r="16" fill="#18324D"/><text x="460.00" y="1035.00" text-anchor="middle" font-family="Trebuchet MS, Verdana, sans-serif" font-size="15" font-weight="800" fill="#FFF6E2">7</text>
<text x="488.00" y="1020.00" text-anchor="start" font-family="Trebuchet MS, Verdana, sans-serif" font-size="18" font-weight="700" fill="#18324D">Ability Draft</text>
<text x="488.00" y="1040.00" text-anchor="start" font-family="Trebuchet MS, Verdana, sans-serif" font-size="13" font-weight="400" fill="#6A7A8A">Pay slot cost to draft</text>
<rect x="796.00" y="1010.00" width="52.00" height="40.00" rx="8" fill="#FCE8BD" stroke="#8A5800" stroke-width="2"/><text x="822.00" y="1035.00" text-anchor="middle" font-family="Trebuchet MS, Verdana, sans-serif" font-size="18" font-weight="800" fill="#8A5800">7</text>
<rect x="856.00" y="1010.00" width="52.00" height="40.00" rx="8" fill="#FCE8BD" stroke="#8A5800" stroke-width="2"/><text x="882.00" y="1035.00" text-anchor="middle" font-family="Trebuchet MS, Verdana, sans-serif" font-size="18" font-weight="800" fill="#8A5800">5</text>
<rect x="916.00" y="1010.00" width="52.00" height="40.00" rx="8" fill="#FCE8BD" stroke="#8A5800" stroke-width="2"/><text x="942.00" y="1035.00" text-anchor="middle" font-family="Trebuchet MS, Verdana, sans-serif" font-size="18" font-weight="800" fill="#8A5800">4</text>
<rect x="976.00" y="1010.00" width="52.00" height="40.00" rx="8" fill="#FCE8BD" stroke="#8A5800" stroke-width="2"/><text x="1002.00" y="1035.00" text-anchor="middle" font-family="Trebuchet MS, Verdana, sans-serif" font-size="18" font-weight="800" fill="#8A5800">3</text>
<rect x="1036.00" y="1010.00" width="52.00" height="40.00" rx="8" fill="#FCE8BD" stroke="#8A5800" stroke-width="2"/><text x="1062.00" y="1035.00" text-anchor="middle" font-family="Trebuchet MS, Verdana, sans-serif" font-size="18" font-weight="800" fill="#8A5800">2</text>
<rect x="1096.00" y="1010.00" width="52.00" height="40.00" rx="8" fill="#FCE8BD" stroke="#8A5800" stroke-width="2"/><text x="1122.00" y="1035.00" text-anchor="middle" font-family="Trebuchet MS, Verdana, sans-serif" font-size="18" font-weight="800" fill="#8A5800">1</text>
<rect x="436.00" y="1072.00" width="728.00" height="68.00" rx="10" fill="#F4E6C4" stroke="#B58E4E" stroke-width="2"/>
<circle cx="460.00" cy="1106.00" r="16" fill="#18324D"/><text x="460.00" y="1111.00" text-anchor="middle" font-family="Trebuchet MS, Verdana, sans-serif" font-size="15" font-weight="800" fill="#FFF6E2">8</text>
<text x="488.00" y="1096.00" text-anchor="start" font-family="Trebuchet MS, Verdana, sans-serif" font-size="18" font-weight="700" fill="#18324D">Dice Movement C</text>
<text x="488.00" y="1116.00" text-anchor="start" font-family="Trebuchet MS, Verdana, sans-serif" font-size="13" font-weight="400" fill="#6A7A8A">Mostly red row</text>
<rect x="856.00" y="1086.00" width="52.00" height="40.00" rx="8" fill="#E88AA0" stroke="#7A1733" stroke-width="2"/><text x="882.00" y="1111.00" text-anchor="middle" font-family="Trebuchet MS, Verdana, sans-serif" font-size="18" font-weight="800" fill="#7A1733">3</text>
<rect x="916.00" y="1086.00" width="52.00" height="40.00" rx="8" fill="#E88AA0" stroke="#7A1733" stroke-width="2"/><text x="942.00" y="1111.00" text-anchor="middle" font-family="Trebuchet MS, Verdana, sans-serif" font-size="18" font-weight="800" fill="#7A1733">2</text>
<rect x="976.00" y="1086.00" width="52.00" height="40.00" rx="8" fill="#F4B08C" stroke="#8A3E21" stroke-width="2"/><text x="1002.00" y="1111.00" text-anchor="middle" font-family="Trebuchet MS, Verdana, sans-serif" font-size="18" font-weight="800" fill="#8A3E21">2</text>
<rect x="1036.00" y="1086.00" width="52.00" height="40.00" rx="8" fill="#E88AA0" stroke="#7A1733" stroke-width="2"/><text x="1062.00" y="1111.00" text-anchor="middle" font-family="Trebuchet MS, Verdana, sans-serif" font-size="18" font-weight="800" fill="#7A1733">1</text>
<rect x="1096.00" y="1086.00" width="52.00" height="40.00" rx="8" fill="#F7DB73" stroke="#8C6700" stroke-width="2"/><text x="1122.00" y="1111.00" text-anchor="middle" font-family="Trebuchet MS, Verdana, sans-serif" font-size="18" font-weight="800" fill="#8C6700">1</text>
</g>
<rect x="370.00" y="1146.00" width="860.00" height="64" rx="12" fill="#FFF6E0" stroke="#18324D" stroke-width="2"/>
<circle cx="398.00" cy="1180.00" r="11" fill="#F6C64B" stroke="#8A5800" stroke-width="2"/>
<text x="418.00" y="1185.00" text-anchor="start" font-family="Trebuchet MS, Verdana, sans-serif" font-size="14" font-weight="700" fill="#18324D">Coin</text>
<rect x="559.00" y="1169.00" width="22" height="22" rx="4" fill="#4BC8D4" stroke="#0E5968" stroke-width="2"/>
<text x="590.00" y="1185.00" text-anchor="start" font-family="Trebuchet MS, Verdana, sans-serif" font-size="14" font-weight="700" fill="#18324D">Box</text>
<polygon points="742.0,1168.0 754.0,1190.0 730.0,1190.0" fill="#F8A513" stroke="#7A4B00" stroke-width="2"/>
<text x="762.00" y="1185.00" text-anchor="start" font-family="Trebuchet MS, Verdana, sans-serif" font-size="14" font-weight="700" fill="#18324D">Yellow trap</text>
<polygon points="914.0,1168.0 926.0,1190.0 902.0,1190.0" fill="#EF6A41" stroke="#7C2816" stroke-width="2"/>
<text x="934.00" y="1185.00" text-anchor="start" font-family="Trebuchet MS, Verdana, sans-serif" font-size="14" font-weight="700" fill="#18324D">Orange trap</text>
<polygon points="1086.0,1168.0 1098.0,1190.0 1074.0,1190.0" fill="#DE4764" stroke="#701226" stroke-width="2"/>
<text x="1106.00" y="1185.00" text-anchor="start" font-family="Trebuchet MS, Verdana, sans-serif" font-size="14" font-weight="700" fill="#18324D">Red trap</text>
</svg>