<svg xmlns="http://www.w3.org/2000/svg" width="3072" height="2124" viewBox="0 0 3072 2124">

<rect width="3072" height="2124" fill="#101720"/>
<g transform="translate(0,0)">
<rect width="750" height="1050" rx="36" fill="#F4F8FF"/>
<rect x="20" y="20" width="710" height="1010" rx="28" fill="none" stroke="#345C9C" stroke-width="8"/>
<rect width="750" height="170" rx="36" fill="#345C9C"/>
<rect y="130" width="750" height="90" fill="#345C9C"/>
<text x="56" y="86" font-family="Trebuchet MS, Verdana, sans-serif" font-size="28" font-weight="700" fill="#CFE0FF" letter-spacing="3">TUNING</text>
<text x="56" y="166" font-family="Trebuchet MS, Verdana, sans-serif" font-size="54" font-weight="700" fill="#FFFFFF">Reroll Kit</text>
<circle cx="654" cy="120" r="52" fill="#CFE0FF" fill-opacity="0.35"/>
<circle cx="654" cy="120" r="26" fill="#FFFFFF" fill-opacity="0.92"/>
<text x="56" y="286" font-family="Trebuchet MS, Verdana, sans-serif" font-size="28" font-weight="700" fill="#345C9C">Play and discard:</text>
<text x="56" y="352" font-family="Trebuchet MS, Verdana, sans-serif" font-size="34" fill="#1D2836">Reroll one die pool after</text>
<text x="56" y="400" font-family="Trebuchet MS, Verdana, sans-serif" font-size="34" fill="#1D2836">rolling.</text>
<text x="56" y="958" font-family="Trebuchet MS, Verdana, sans-serif" font-size="28" fill="#415166">Mystery Box</text>
<text x="694" y="958" text-anchor="end" font-family="Trebuchet MS, Verdana, sans-serif" font-size="28" fill="#415166">card_reroll</text>
</g>
<g transform="translate(774,0)">
<rect width="750" height="1050" rx="36" fill="#FFF4EE"/>
<rect x="20" y="20" width="710" height="1010" rx="28" fill="none" stroke="#8A3E22" stroke-width="8"/>
<rect width="750" height="170" rx="36" fill="#8A3E22"/>
<rect y="130" width="750" height="90" fill="#8A3E22"/>
<text x="56" y="86" font-family="Trebuchet MS, Verdana, sans-serif" font-size="28" font-weight="700" fill="#FFD8C2" letter-spacing="3">BURST</text>
<text x="56" y="166" font-family="Trebuchet MS, Verdana, sans-serif" font-size="54" font-weight="700" fill="#FFFFFF">Boost Burst</text>
<circle cx="654" cy="120" r="52" fill="#FFD8C2" fill-opacity="0.35"/>
<circle cx="654" cy="120" r="26" fill="#FFFFFF" fill-opacity="0.92"/>
<text x="56" y="286" font-family="Trebuchet MS, Verdana, sans-serif" font-size="28" font-weight="700" fill="#8A3E22">Play and discard:</text>
<text x="56" y="352" font-family="Trebuchet MS, Verdana, sans-serif" font-size="34" fill="#1D2836">Gain +2 movement.</text>
<text x="56" y="958" font-family="Trebuchet MS, Verdana, sans-serif" font-size="28" fill="#415166">Mystery Box</text>
<text x="694" y="958" text-anchor="end" font-family="Trebuchet MS, Verdana, sans-serif" font-size="28" fill="#415166">card_boost</text>
</g>
<g transform="translate(1548,0)">
<rect width="750" height="1050" rx="36" fill="#F2FFF8"/>
<rect x="20" y="20" width="710" height="1010" rx="28" fill="none" stroke="#2D6A4F" stroke-width="8"/>
<rect width="750" height="170" rx="36" fill="#2D6A4F"/>
<rect y="130" width="750" height="90" fill="#2D6A4F"/>
<text x="56" y="86" font-family="Trebuchet MS, Verdana, sans-serif" font-size="28" font-weight="700" fill="#CCF1DE" letter-spacing="3">RESOURCE</text>
<text x="56" y="166" font-family="Trebuchet MS, Verdana, sans-serif" font-size="54" font-weight="700" fill="#FFFFFF">Spare Can</text>
<circle cx="654" cy="120" r="52" fill="#CCF1DE" fill-opacity="0.35"/>
<circle cx="654" cy="120" r="26" fill="#FFFFFF" fill-opacity="0.92"/>
<text x="56" y="286" font-family="Trebuchet MS, Verdana, sans-serif" font-size="28" font-weight="700" fill="#2D6A4F">Play and discard:</text>
<text x="56" y="352" font-family="Trebuchet MS, Verdana, sans-serif" font-size="34" fill="#1D2836">Gain 2 fuel.</text>
<text x="56" y="958" font-family="Trebuchet MS, Verdana, sans-serif" font-size="28" fill="#415166">Mystery Box</text>
<text x="694" y="958" text-anchor="end" font-family="Trebuchet MS, Verdana, sans-serif" font-size="28" fill="#415166">card_fuel</text>
</g>
<g transform="translate(2322,0)">
<rect width="750" height="1050" rx="36" fill="#FFFBEA"/>
<rect x="20" y="20" width="710" height="1010" rx="28" fill="none" stroke="#8A6A12" stroke-width="8"/>
<rect width="750" height="170" rx="36" fill="#8A6A12"/>
<rect y="130" width="750" height="90" fill="#8A6A12"/>
<text x="56" y="86" font-family="Trebuchet MS, Verdana, sans-serif" font-size="28" font-weight="700" fill="#F7E8B3" letter-spacing="3">RESOURCE</text>
<text x="56" y="166" font-family="Trebuchet MS, Verdana, sans-serif" font-size="54" font-weight="700" fill="#FFFFFF">Coin Stash</text>
<circle cx="654" cy="120" r="52" fill="#F7E8B3" fill-opacity="0.35"/>
<circle cx="654" cy="120" r="26" fill="#FFFFFF" fill-opacity="0.92"/>
<text x="56" y="286" font-family="Trebuchet MS, Verdana, sans-serif" font-size="28" font-weight="700" fill="#8A6A12">Play and discard:</text>
<text x="56" y="352" font-family="Trebuchet MS, Verdana, sans-serif" font-size="34" fill="#1D2836">Gain 3 coins.</text>
<text x="56" y="958" font-family="Trebuchet MS, Verdana, sans-serif" font-size="28" fill="#415166">Mystery Box</text>
<text x="694" y="958" text-anchor="end" font-family="Trebuchet MS, Verdana, sans-serif" font-size="28" fill="#415166">card_coins</text>
</g>
<g transform="translate(0,1074)">
<rect width="750" height="1050" rx="36" fill="#FBF7FF"/>
<rect x="20" y="20" width="710" height="1010" rx="28" fill="none" stroke="#5A2E88" stroke-width="8"/>
<rect width="750" height="170" rx="36" fill="#5A2E88"/>
<rect y="130" width="750" height="90" fill="#5A2E88"/>
<text x="56" y="86" font-family="Trebuchet MS, Verdana, sans-serif" font-size="28" font-weight="700" fill="#E1D0FF" letter-spacing="3">DEFENSE</text>
<text x="56" y="166" font-family="Trebuchet MS, Verdana, sans-serif" font-size="54" font-weight="700" fill="#FFFFFF">Trap Shield</text>
<circle cx="654" cy="120" r="52" fill="#E1D0FF" fill-opacity="0.35"/>
<circle cx="654" cy="120" r="26" fill="#FFFFFF" fill-opacity="0.92"/>
<text x="56" y="286" font-family="Trebuchet MS, Verdana, sans-serif" font-size="28" font-weight="700" fill="#5A2E88">Play and discard:</text>
<text x="56" y="352" font-family="Trebuchet MS, Verdana, sans-serif" font-size="34" fill="#1D2836">Ignore a trap.</text>
<text x="56" y="958" font-family="Trebuchet MS, Verdana, sans-serif" font-size="28" fill="#415166">Mystery Box</text>
<text x="694" y="958" text-anchor="end" font-family="Trebuchet MS, Verdana, sans-serif" font-size="28" fill="#415166">card_shield</text>
</g>
<g transform="translate(774,1074)">
<rect width="750" height="1050" rx="36" fill="#FFF2F5"/>
<rect x="20" y="20" width="710" height="1010" rx="28" fill="none" stroke="#7D2337" stroke-width="8"/>
<rect width="750" height="170" rx="36" fill="#7D2337"/>
<rect y="130" width="750" height="90" fill="#7D2337"/>
<text x="56" y="86" font-family="Trebuchet MS, Verdana, sans-serif" font-size="28" font-weight="700" fill="#FFD0DA" letter-spacing="3">ATTACK</text>
<text x="56" y="166" font-family="Trebuchet MS, Verdana, sans-serif" font-size="54" font-weight="700" fill="#FFFFFF">Sabotage</text>
<circle cx="654" cy="120" r="52" fill="#FFD0DA" fill-opacity="0.35"/>
<circle cx="654" cy="120" r="26" fill="#FFFFFF" fill-opacity="0.92"/>
<text x="56" y="286" font-family="Trebuchet MS, Verdana, sans-serif" font-size="28" font-weight="700" fill="#7D2337">Play and discard:</text>
<text x="56" y="352" font-family="Trebuchet MS, Verdana, sans-serif" font-size="34" fill="#1D2836">All players within 3 spaces of</text>
<text x="56" y="400" font-family="Trebuchet MS, Verdana, sans-serif" font-size="34" fill="#1D2836">you roll a yellow die and move</text>
<text x="56" y="448" font-family="Trebuchet MS, Verdana, sans-serif" font-size="34" fill="#1D2836">back that many spaces.</text>
<text x="56" y="958" font-family="Trebuchet MS, Verdana, sans-serif" font-size="28" fill="#415166">Mystery Box</text>
<text x="694" y="958" text-anchor="end" font-family="Trebuchet MS, Verdana, sans-serif" font-size="28" fill="#415166">card_sabotage</text>
</g>
<g transform="translate(1548,1074)">
<rect width="750" height="1050" rx="36" fill="#F0FDFF"/>
<rect x="20" y="20" width="710" height="1010" rx="28" fill="none" stroke="#12737E" stroke-width="8"/>
<rect width="750" height="170" rx="36" fill="#12737E"/>
<rect y="130" width="750" height="90" fill="#12737E"/>
<text x="56" y="86" font-family="Trebuchet MS, Verdana, sans-serif" font-size="28" font-weight="700" fill="#BEEFF2" letter-spacing="3">POSITIONING</text>
<text x="56" y="166" font-family="Trebuchet MS, Verdana, sans-serif" font-size="54" font-weight="700" fill="#FFFFFF">Drafting Line</text>
<circle cx="654" cy="120" r="52" fill="#BEEFF2" fill-opacity="0.35"/>
<circle cx="654" cy="120" r="26" fill="#FFFFFF" fill-opacity="0.92"/>
<text x="56" y="286" font-family="Trebuchet MS, Verdana, sans-serif" font-size="28" font-weight="700" fill="#12737E">Play and discard:</text>
<text x="56" y="352" font-family="Trebuchet MS, Verdana, sans-serif" font-size="34" fill="#1D2836">After any move, advance 1</text>
<text x="56" y="400" font-family="Trebuchet MS, Verdana, sans-serif" font-size="34" fill="#1D2836">extra space for each opponent</text>
<text x="56" y="448" font-family="Trebuchet MS, Verdana, sans-serif" font-size="34" fill="#1D2836">directly ahead within 5</text>
<text x="56" y="496" font-family="Trebuchet MS, Verdana, sans-serif" font-size="34" fill="#1D2836">spaces.</text>
<text x="56" y="958" font-family="Trebuchet MS, Verdana, sans-serif" font-size="28" fill="#415166">Mystery Box</text>
<text x="694" y="958" text-anchor="end" font-family="Trebuchet MS, Verdana, sans-serif" font-size="28" fill="#415166">card_drafting_line</text>
</g>
<g transform="translate(2322,1074)">
<rect width="750" height="1050" rx="36" fill="#FFF6ED"/>
<rect x="20" y="20" width="710" height="1010" rx="28" fill="none" stroke="#A14F10" stroke-width="8"/>
<rect width="750" height="170" rx="36" fill="#A14F10"/>
<rect y="130" width="750" height="90" fill="#A14F10"/>
<text x="56" y="86" font-family="Trebuchet MS, Verdana, sans-serif" font-size="28" font-weight="700" fill="#FFD7AE" letter-spacing="3">BOOST</text>
<text x="56" y="166" font-family="Trebuchet MS, Verdana, sans-serif" font-size="54" font-weight="700" fill="#FFFFFF">Overclock</text>
<circle cx="654" cy="120" r="52" fill="#FFD7AE" fill-opacity="0.35"/>
<circle cx="654" cy="120" r="26" fill="#FFFFFF" fill-opacity="0.92"/>
<text x="56" y="286" font-family="Trebuchet MS, Verdana, sans-serif" font-size="28" font-weight="700" fill="#A14F10">Play and discard:</text>
<text x="56" y="352" font-family="Trebuchet MS, Verdana, sans-serif" font-size="34" fill="#1D2836">Add +2 to a die result.</text>
<text x="56" y="958" font-family="Trebuchet MS, Verdana, sans-serif" font-size="28" fill="#415166">Mystery Box</text>
<text x="694" y="958" text-anchor="end" font-family="Trebuchet MS, Verdana, sans-serif" font-size="28" fill="#415166">card_overclock</text>
</g>
</svg>
