<svg xmlns="http://www.w3.org/2000/svg" width="720" height="720" viewBox="0 0 720 720">

<rect width="720" height="720" fill="#D94B4B"/>
<line x1="240" y1="0" x2="240" y2="720" stroke="#FFD6D6" stroke-width="2" opacity="0.65"/>
<line x1="480" y1="0" x2="480" y2="720" stroke="#FFD6D6" stroke-width="2" opacity="0.65"/>
<line x1="0" y1="240" x2="720" y2="240" stroke="#FFD6D6" stroke-width="2" opacity="0.65"/>
<line x1="0" y1="480" x2="720" y2="480" stroke="#FFD6D6" stroke-width="2" opacity="0.65"/>
<text x="120.0" y="348" text-anchor="middle" font-family="Trebuchet MS, Verdana, sans-serif" font-size="84" font-weight="700" fill="#2D0A14">-3</text>
<text x="360.0" y="348" text-anchor="middle" font-family="Trebuchet MS, Verdana, sans-serif" font-size="84" font-weight="700" fill="#2D0A14">-1</text>
<text x="600.0" y="348" text-anchor="middle" font-family="Trebuchet MS, Verdana, sans-serif" font-size="84" font-weight="700" fill="#2D0A14">+1</text>
<text x="120.0" y="588" text-anchor="middle" font-family="Trebuchet MS, Verdana, sans-serif" font-size="84" font-weight="700" fill="#2D0A14">+4</text>
<path d="M 120.0 634.0 C 137.0 654.0, 135.6 665.0, 120.0 681.0 C 104.4 665.0, 103.0 654.0, 120.0 634.0 Z" fill="#7D2337" opacity="0.95"/>
<text x="360.0" y="588" text-anchor="middle" font-family="Trebuchet MS, Verdana, sans-serif" font-size="84" font-weight="700" fill="#2D0A14">+5</text>
<path d="M 346.0 634.0 C 363.0 654.0, 361.6 665.0, 346.0 681.0 C 330.4 665.0, 329.0 654.0, 346.0 634.0 Z" fill="#7D2337" opacity="0.95"/>
<path d="M 374.0 634.0 C 391.0 654.0, 389.6 665.0, 374.0 681.0 C 358.4 665.0, 357.0 654.0, 374.0 634.0 Z" fill="#7D2337" opacity="0.95"/>
<text x="600.0" y="588" text-anchor="middle" font-family="Trebuchet MS, Verdana, sans-serif" font-size="84" font-weight="700" fill="#2D0A14">+7</text>
<path d="M 572.0 634.0 C 589.0 654.0, 587.6 665.0, 572.0 681.0 C 556.4 665.0, 555.0 654.0, 572.0 634.0 Z" fill="#7D2337" opacity="0.95"/>
<path d="M 600.0 634.0 C 617.0 654.0, 615.6 665.0, 600.0 681.0 C 584.4 665.0, 583.0 654.0, 600.0 634.0 Z" fill="#7D2337" opacity="0.95"/>
<path d="M 628.0 634.0 C 645.0 654.0, 643.6 665.0, 628.0 681.0 C 612.4 665.0, 611.0 654.0, 628.0 634.0 Z" fill="#7D2337" opacity="0.95"/>
</svg>
